<?xml version="1.0" encoding="UTF-8" standalone="no"?>
<!-- Created with Inkscape (http://www.inkscape.org/) -->

<svg
   xmlns:dc="http://purl.org/dc/elements/1.1/"
   xmlns:cc="http://creativecommons.org/ns#"
   xmlns:rdf="http://www.w3.org/1999/02/22-rdf-syntax-ns#"
   xmlns:svg="http://www.w3.org/2000/svg"
   xmlns="http://www.w3.org/2000/svg"
   xmlns:sodipodi="http://sodipodi.sourceforge.net/DTD/sodipodi-0.dtd"
   xmlns:inkscape="http://www.inkscape.org/namespaces/inkscape"
   width="580"
   height="400"
   id="svg2"
   version="1.1"
   inkscape:version="0.48+devel r"
   sodipodi:docname="drawing.rol">
  <defs
     id="defs4" />
  <sodipodi:namedview
     id="base"
     pagecolor="#ffffff"
     bordercolor="#666666"
     borderopacity="1.0"
     inkscape:pageopacity="0.0"
     inkscape:pageshadow="2"
     inkscape:zoom="1.3837348"
     inkscape:cx="300.4776"
     inkscape:cy="240.93233"
     inkscape:document-units="px"
     inkscape:current-layer="layer1"
     showgrid="false"
     inkscape:window-width="1280"
     inkscape:window-height="973"
     inkscape:window-x="0"
     inkscape:window-y="24"
     inkscape:window-maximized="1" />
  <metadata
     id="metadata7">
    <rdf:RDF>
      <cc:Work
         rdf:about="">
        <dc:format>image/svg+xml</dc:format>
        <dc:type
           rdf:resource="http://purl.org/dc/dcmitype/StillImage" />
        <dc:title></dc:title>
      </cc:Work>
    </rdf:RDF>
  </metadata>
  <g
     inkscape:label="Layer 1"
     inkscape:groupmode="layer"
     id="layer1"
     transform="translate(0,-652.3622)">
    <path
       inkscape:connector-curvature="0"
       id="path3082"
       style="font-size:758.06933594px;font-style:normal;font-variant:normal;font-weight:normal;font-stretch:normal;text-align:start;line-height:125%;letter-spacing:0px;word-spacing:0px;writing-mode:lr-tb;text-anchor:start;fill:none;stroke:#000000;stroke-width:1;stroke-opacity:1;font-family:Arial;-inkscape-font-specification:Arial"
       d="m 45.847187,1042.2388 0,-74.149 9.905591,0 0,30.44865 38.907522,0 0,-30.44865 9.90559,0 0,74.149 -9.90559,0 0,-34.9502 -38.907522,0 0,34.9502 -9.905591,0" />
    <path
       inkscape:connector-curvature="0"
       id="path3084"
       style="font-size:758.06933594px;font-style:normal;font-variant:normal;font-weight:normal;font-stretch:normal;text-align:start;line-height:125%;letter-spacing:0px;word-spacing:0px;writing-mode:lr-tb;text-anchor:start;fill:none;stroke:#000000;stroke-width:1;stroke-opacity:1;font-family:Arial;-inkscape-font-specification:Arial"
       d="m 112.88864,1042.2388 28.74664,-74.149 10.67149,0 30.63584,74.149 -11.2842,0 -8.73122,-22.4571 -31.29963,0 -8.22061,22.4571 -10.51831,0 m 21.59828,-30.4486 25.37668,0 -7.81214,-20.53515 c -2.38283,-6.23804 -4.15288,-11.36339 -5.31021,-15.37606 -0.95315,4.7545 -2.29772,9.47522 -4.03372,14.16216 l -8.22061,21.74905" />
    <path
       inkscape:connector-curvature="0"
       id="path3086"
       style="font-size:758.06933594px;font-style:normal;font-variant:normal;font-weight:normal;font-stretch:normal;text-align:start;line-height:125%;letter-spacing:0px;word-spacing:0px;writing-mode:lr-tb;text-anchor:start;fill:none;stroke:#000000;stroke-width:1;stroke-opacity:1;font-family:Arial;-inkscape-font-specification:Arial"
       d="m 244.36749,1016.2412 9.90559,2.4783 c -2.0765,8.059 -5.82088,14.2128 -11.23314,18.4614 -5.37834,4.215 -11.96505,6.3224 -19.76013,6.3224 -8.06747,0 -14.63715,-1.6185 -19.70906,-4.8556 -5.0379,-3.2708 -8.8844,-7.9915 -11.5395,-14.1621 -2.62107,-6.1707 -3.93161,-12.7965 -3.9316,-19.8777 -1e-5,-7.72166 1.48073,-14.44868 4.4422,-20.18103 2.99548,-5.76596 7.23345,-10.13263 12.71387,-13.10001 5.51443,-3.00095 11.57352,-4.50146 18.17728,-4.50154 7.48872,8e-5 13.78608,1.88836 18.89211,5.66486 5.1059,3.77665 8.66307,9.08745 10.67147,15.93244 l -9.7524,2.27606 c -1.7361,-5.39505 -4.25503,-9.32336 -7.55685,-11.78494 -3.30191,-2.46145 -7.45476,-3.69221 -12.45857,-3.69228 -5.75276,7e-5 -10.5694,1.3657 -14.44992,4.09691 -3.84651,2.73134 -6.55268,6.40675 -8.1185,11.02626 -1.56584,4.58589 -2.34875,9.32346 -2.34874,14.21277 -1e-5,6.3055 0.91906,11.8187 2.75722,16.5394 1.87218,4.687 4.76556,8.1938 8.68016,10.5204 3.91455,2.3267 8.1525,3.49 12.71388,3.49 5.54845,0 10.24594,-1.5848 14.09249,-4.7545 3.84644,-3.1696 6.45049,-7.8734 7.81214,-14.1115" />
    <path
       inkscape:connector-curvature="0"
       id="path3088"
       style="font-size:758.06933594px;font-style:normal;font-variant:normal;font-weight:normal;font-stretch:normal;text-align:start;line-height:125%;letter-spacing:0px;word-spacing:0px;writing-mode:lr-tb;text-anchor:start;fill:none;stroke:#000000;stroke-width:1;stroke-opacity:1;font-family:Arial;-inkscape-font-specification:Arial"
       d="m 266.11894,1042.2388 0,-74.149 9.90559,0 0,36.771 37.1715,-36.771 13.42871,0 -31.40174,30.04402 32.78036,44.10498 -13.0713,0 -26.65319,-37.5297 -12.25434,11.8355 0,25.6942 -9.90559,0" />
    <path
       inkscape:connector-curvature="0"
       id="path3090"
       style="font-size:758.06933594px;font-style:normal;font-variant:normal;font-weight:normal;font-stretch:normal;text-align:start;line-height:125%;letter-spacing:0px;word-spacing:0px;writing-mode:lr-tb;text-anchor:start;fill:none;stroke:#000000;stroke-width:1;stroke-opacity:1;font-family:Arial;-inkscape-font-specification:Arial"
       d="m 336.37716,1042.2388 0,-74.149 28.23604,0 c 4.96978,7e-5 8.76521,0.23611 11.38632,0.70811 3.67626,0.60702 6.75685,1.77034 9.24183,3.48996 2.48483,1.68604 4.47617,4.06326 5.97398,7.13166 1.53173,3.06853 2.29763,6.44047 2.29769,10.11583 -6e-5,6.30558 -2.02543,11.65014 -6.0761,16.03364 -4.05081,4.3498 -11.36936,6.5247 -21.9557,6.5247 l -19.19847,0 0,30.1451 -9.90559,0 m 9.90559,-38.8953 19.35165,0 c 6.39944,0 10.94375,-1.1802 13.63295,-3.54057 2.68909,-2.36032 4.03366,-5.68168 4.03372,-9.96409 -6e-5,-3.10214 -0.79999,-5.74911 -2.39981,-7.94093 -1.56587,-2.22542 -3.6423,-3.69222 -6.22928,-4.40039 -1.668,-0.43829 -4.74861,-0.65746 -9.24181,-0.65753 l -19.14742,0 0,26.50351" />
    <path
       inkscape:connector-curvature="0"
       id="path3092"
       style="font-size:758.06933594px;font-style:normal;font-variant:normal;font-weight:normal;font-stretch:normal;text-align:start;line-height:125%;letter-spacing:0px;word-spacing:0px;writing-mode:lr-tb;text-anchor:start;fill:none;stroke:#000000;stroke-width:1;stroke-opacity:1;font-family:Arial;-inkscape-font-specification:Arial"
       d="m 441.25389,1013.1558 0,-8.6996 31.70811,-0.051 0,27.5151 c -4.86776,3.844 -9.88864,6.7439 -15.06262,8.6996 -5.17412,1.922 -10.48432,2.883 -15.93065,2.883 -7.35264,0 -14.04146,-1.5511 -20.06648,-4.6533 -5.99103,-3.1359 -10.51832,-7.6543 -13.58189,-13.5552 -3.06359,-5.9009 -4.59538,-12.493 -4.59538,-19.7764 0,-7.21594 1.51477,-13.94296 4.54433,-20.18111 3.06356,-6.27175 7.4547,-10.92503 13.1734,-13.95985 5.71866,-3.03467 12.30537,-4.55204 19.76013,-4.55212 5.41228,8e-5 10.29699,0.87678 14.65414,2.63012 4.39109,1.71976 7.8291,4.1307 10.31407,7.23282 2.48484,3.10225 4.37405,7.14857 5.66764,12.13899 l -8.93546,2.4278 c -1.12338,-3.77652 -2.51901,-6.74383 -4.1869,-8.90193 -1.668,-2.15798 -4.05079,-3.87767 -7.14837,-5.15907 -3.09767,-1.31499 -6.53568,-1.97252 -10.31407,-1.97259 -4.52733,7e-5 -8.4419,0.69131 -11.74373,2.07374 -3.30189,1.34885 -5.97403,3.13597 -8.01638,5.3614 -2.00838,2.22554 -3.5742,4.67019 -4.6975,7.33397 -1.90625,4.58589 -2.85937,9.55951 -2.85935,14.92083 -2e-5,6.6091 1.14032,12.139 3.421,16.59 2.3147,4.451 5.66761,7.7555 10.05878,9.9135 4.39109,2.1581 9.05455,3.2371 13.99037,3.2371 4.28896,0 8.47587,-0.8093 12.56069,-2.4278 4.08473,-1.6523 7.18235,-3.4057 9.29288,-5.2603 l 0,-13.8081 -22.00676,0" />
    <path
       inkscape:connector-curvature="0"
       id="path3094"
       style="font-size:758.06933594px;font-style:normal;font-variant:normal;font-weight:normal;font-stretch:normal;text-align:start;line-height:125%;letter-spacing:0px;word-spacing:0px;writing-mode:lr-tb;text-anchor:start;fill:none;stroke:#000000;stroke-width:1;stroke-opacity:1;font-family:Arial;-inkscape-font-specification:Arial"
       d="m 487.82036,1042.2388 0,-74.149 9.90559,0 0,30.44865 38.90753,0 0,-30.44865 9.9056,0 0,74.149 -9.9056,0 0,-34.9502 -38.90753,0 0,34.9502 -9.90559,0" />
    <path
       transform="translate(0,652.3622)"
       style="fill:none;stroke:#000000;stroke-width:1px;stroke-linecap:butt;stroke-linejoin:miter;stroke-opacity:1"
       d="m 232.70355,159.34695 c 4.49257,-0.33087 2.6625,5.89266 0.54995,7.46695 -5.72489,4.26625 -13.21627,-0.71747 -15.48384,-6.36706 -4.05616,-10.10579 3.57067,-20.68 13.28406,-23.50073 14.25481,-4.13953 28.27351,6.42953 31.51762,20.20107 4.3239,18.35531 -9.28605,35.91681 -27.11807,39.53451 -22.43978,4.55251 -43.58476,-12.14042 -47.5514,-34.03508 -4.80414,-26.51736 14.99336,-51.26678 40.95208,-55.56829 30.59146,-5.06918 58.95759,17.84538 63.58518,47.86909 5.34274,34.66357 -20.69677,66.65428 -54.78609,71.60207 -38.73446,5.622 -74.35508,-23.54774 -79.61896,-61.7031 -5.90528,-42.80454 26.39841,-82.058878 68.6201,-87.635849 46.87408,-6.191495 89.76493,29.248869 95.65274,75.537109 6.47993,50.94322 -32.09915,97.4727 -82.45411,103.66963 -55.01207,6.77006 -105.18184,-34.94931 -111.68652,-89.37112 -7.06153,-59.08069 37.79937,-112.892066 96.28812,-119.703409 63.14914,-7.354073 120.60318,40.649361 127.7203,103.205129 1.42852,12.5559 0.8533,25.32555 -1.67401,37.7063"
       id="path3864" />
  </g>
</svg>
